{
  "accessors": [
    {
      "bufferView": 2,
      "componentType": 5126,
      "count": 911,
      "max": [
        1.287876009941101,
        0.7115640044212341,
        41.88151168823242
      ],
      "min": [
        -7.678999900817871,
        -7.264575958251953,
        29.94940185546875
      ],
      "type": "VEC3"
    },
    {
      "bufferView": 2,
      "byteOffset": 10932,
      "componentType": 5126,
      "count": 911,
      "max": [
        0.9990501403808594,
        0.9998047947883606,
        0.9992325901985168
      ],
      "min": [
        -0.9978693723678589,
        -0.9969341158866882,
        -0.9994794726371765
      ],
      "type": "VEC3"
    },
    {
      "bufferView": 1,
      "componentType": 5126,
      "count": 911,
      "max": [
        0.9928399920463562,
        0.830079972743988
      ],
      "min": [
        0.009770000353455544,
        0.0019499999471008778
      ],
      "type": "VEC2"
    },
    {
      "bufferView": 0,
      "componentType": 5125,
      "count": 2121,
      "type": "SCALAR"
    },
    {
      "bufferView": 2,
      "byteOffset": 21864,
      "componentType": 5126,
      "count": 2445,
      "max": [
        5.033992767333984,
        10.495603561401367,
        34.374610900878906
      ],
      "min": [
        -9.720623970031738,
        -11.034074783325195,
        -0.129613995552063
      ],
      "type": "VEC3"
    },
    {
      "bufferView": 2,
      "byteOffset": 51204,
      "componentType": 5126,
      "count": 2445,
      "max": [
        0.9998267889022827,
        0.9993756413459778,
        0.9975739121437073
      ],
      "min": [
        -0.9998528361320496,
        -0.9999972581863403,
        -0.998465359210968
      ],
      "type": "VEC3"
    },
    {
      "bufferView": 1,
      "byteOffset": 7288,
      "componentType": 5126,
      "count": 2445,
      "max": [
        0.9970700144767761,
        0.9980499744415283
      ],
      "min": [
        0.0019499999471008778,
        0.0019499999471008778
      ],
      "type": "VEC2"
    },
    {
      "bufferView": 0,
      "byteOffset": 8484,
      "componentType": 5125,
      "count": 6279,
      "type": "SCALAR"
    },
    {
      "bufferView": 2,
      "byteOffset": 80544,
      "componentType": 5126,
      "count": 887,
      "max": [
        5.157054901123047,
        9.03674030303955,
        26.27050018310547
      ],
      "min": [
        -10.733057022094727,
        -9.401771545410156,
        4.185417175292969
      ],
      "type": "VEC3"
    },
    {
      "bufferView": 2,
      "byteOffset": 91188,
      "componentType": 5126,
      "count": 887,
      "max": [
        0.9971440434455872,
        0.9988089203834534,
        0.9980596899986267
      ],
      "min": [
        -0.9991455674171448,
        -0.9991356134414673,
        -0.9953246712684631
      ],
      "type": "VEC3"
    },
    {
      "bufferView": 1,
      "byteOffset": 26848,
      "componentType": 5126,
      "count": 887,
      "max": [
        0.9941400289535522,
        0.9953100085258484
      ],
      "min": [
        0.0019499999471008778,
        0.0019499999471008778
      ],
      "type": "VEC2"
    },
    {
      "bufferView": 0,
      "byteOffset": 33600,
      "componentType": 5125,
      "count": 2958,
      "type": "SCALAR"
    },
    {
      "bufferView": 2,
      "byteOffset": 101832,
      "componentType": 5126,
      "count": 1215,
      "max": [
        6.473322868347168,
        7.516019821166992,
        32.051692962646484
      ],
      "min": [
        -8.424886703491211,
        -9.842169761657715,
        20.975841522216797
      ],
      "type": "VEC3"
    },
    {
      "bufferView": 2,
      "byteOffset": 116412,
      "componentType": 5126,
      "count": 1215,
      "max": [
        0.998555064201355,
        0.9967752695083618,
        0.9975811839103699
      ],
      "min": [
        -0.9994363784790039,
        -0.9985911846160889,
        -0.9997158646583557
      ],
      "type": "VEC3"
    },
    {
      "bufferView": 1,
      "byteOffset": 33944,
      "componentType": 5126,
      "count": 1215,
      "max": [
        0.9941400289535522,
        0.9980499744415283
      ],
      "min": [
        0.005859999917447567,
        0.005859999917447567
      ],
      "type": "VEC2"
    },
    {
      "bufferView": 0,
      "byteOffset": 45432,
      "componentType": 5125,
      "count": 4020,
      "type": "SCALAR"
    }
  ],
  "asset": {
    "extras": {
      "author": "Tigerar1 (https://sketchfab.com/allanromanreyes)",
      "license": "SKETCHFAB Standard (https://sketchfab.com/licenses)",
      "source": "https://sketchfab.com/3d-models/goku-super-saiyan-c2cff8a947c94ea49c7d345fd6893fa9",
      "title": "Goku Super Saiyan"
    },
    "generator": "Sketchfab-15.55.0",
    "version": "2.0"
  },
  "bufferViews": [
    {
      "buffer": 0,
      "byteLength": 61512,
      "name": "floatBufferViews",
      "target": 34963
    },
    {
      "buffer": 0,
      "byteLength": 43664,
      "byteOffset": 61512,
      "byteStride": 8,
      "name": "floatBufferViews",
      "target": 34962
    },
    {
      "buffer": 0,
      "byteLength": 130992,
      "byteOffset": 105176,
      "byteStride": 12,
      "name": "floatBufferViews",
      "target": 34962
    }
  ],
  "buffers": [
    {
      "byteLength": 236168,
      "uri": "scene.bin"
    }
  ],
  "images": [
    {
      "uri": "textures/eyes.png_baseColor.png"
    },
    {
      "uri": "textures/face.png_baseColor.png"
    },
    {
      "uri": "textures/pants.png_baseColor.png"
    },
    {
      "uri": "textures/shirt.png_baseColor.png"
    }
  ],
  "materials": [
    {
      "doubleSided": true,
      "name": "eyes.png",
      "pbrMetallicRoughness": {
        "baseColorTexture": {
          "index": 0
        },
        "metallicFactor": 0.0,
        "roughnessFactor": 0.9686983083985342
      }
    },
    {
      "doubleSided": true,
      "name": "face.png",
      "pbrMetallicRoughness": {
        "baseColorTexture": {
          "index": 1
        },
        "metallicFactor": 0.0,
        "roughnessFactor": 0.9686983083985342
      }
    },
    {
      "doubleSided": true,
      "name": "pants.png",
      "pbrMetallicRoughness": {
        "baseColorTexture": {
          "index": 2
        },
        "metallicFactor": 0.0,
        "roughnessFactor": 0.9686983083985342
      }
    },
    {
      "doubleSided": true,
      "name": "shirt.png",
      "pbrMetallicRoughness": {
        "baseColorTexture": {
          "index": 3
        },
        "metallicFactor": 0.0,
        "roughnessFactor": 0.9686983083985342
      }
    }
  ],
  "meshes": [
    {
      "name": "Object_0",
      "primitives": [
        {
          "attributes": {
            "NORMAL": 1,
            "POSITION": 0,
            "TEXCOORD_0": 2
          },
          "indices": 3,
          "material": 0,
          "mode": 4
        }
      ]
    },
    {
      "name": "Object_1",
      "primitives": [
        {
          "attributes": {
            "NORMAL": 5,
            "POSITION": 4,
            "TEXCOORD_0": 6
          },
          "indices": 7,
          "material": 1,
          "mode": 4
        }
      ]
    },
    {
      "name": "Object_2",
      "primitives": [
        {
          "attributes": {
            "NORMAL": 9,
            "POSITION": 8,
            "TEXCOORD_0": 10
          },
          "indices": 11,
          "material": 2,
          "mode": 4
        }
      ]
    },
    {
      "name": "Object_3",
      "primitives": [
        {
          "attributes": {
            "NORMAL": 13,
            "POSITION": 12,
            "TEXCOORD_0": 14
          },
          "indices": 15,
          "material": 3,
          "mode": 4
        }
      ]
    }
  ],
  "nodes": [
    {
      "children": [
        1
      ],
      "matrix": [
        1.0,
        0.0,
        0.0,
        0.0,
        0.0,
        2.220446049250313e-16,
        -1.0,
        0.0,
        0.0,
        1.0,
        2.220446049250313e-16,
        0.0,
        0.0,
        0.0,
        0.0,
        1.0
      ],
      "name": "Sketchfab_model"
    },
    {
      "children": [
        2,
        3,
        4,
        5
      ],
      "name": "Goku.obj.cleaner.materialmerger.gles"
    },
    {
      "mesh": 0,
      "name": "Object_2"
    },
    {
      "mesh": 1,
      "name": "Object_3"
    },
    {
      "mesh": 2,
      "name": "Object_4"
    },
    {
      "mesh": 3,
      "name": "Object_5"
    }
  ],
  "samplers": [
    {
      "magFilter": 9729,
      "minFilter": 9987,
      "wrapS": 10497,
      "wrapT": 10497
    }
  ],
  "scene": 0,
  "scenes": [
    {
      "name": "Sketchfab_Scene",
      "nodes": [
        0
      ]
    }
  ],
  "textures": [
    {
      "sampler": 0,
      "source": 0
    },
    {
      "sampler": 0,
      "source": 1
    },
    {
      "sampler": 0,
      "source": 2
    },
    {
      "sampler": 0,
      "source": 3
    }
  ]
}
