{
	"asset":{
		"generator":"Khronos glTF Blender I/O v4.0.44",
		"version":"2.0"
	},
	"scene":0,
	"scenes":[
		{
			"name":"Scene",
			"nodes":[
				0
			]
		}
	],
	"nodes":[
		{
			"mesh":0,
			"name":"Landscape"
		}
	],
	"materials":[
		{
			"doubleSided":true,
			"name":"Material.001",
			"pbrMetallicRoughness":{
				"baseColorFactor":[
					0.1995137631893158,
					0.8011159300804138,
					0.32280808687210083,
					1
				],
				"metallicFactor":0.0476190485060215,
				"roughnessFactor":0.4000000059604645
			}
		}
	],
	"meshes":[
		{
			"name":"Landscape",
			"primitives":[
				{
					"attributes":{
						"POSITION":0,
						"NORMAL":1
					},
					"indices":2,
					"material":0
				}
			]
		}
	],
	"accessors":[
		{
			"bufferView":0,
			"componentType":5126,
			"count":153144,
			"max":[
				10,
				3.759999990463257,
				10
			],
			"min":[
				-10,
				0.37999987602233887,
				-10
			],
			"type":"VEC3"
		},
		{
			"bufferView":1,
			"componentType":5126,
			"count":153144,
			"type":"VEC3"
		},
		{
			"bufferView":2,
			"componentType":5125,
			"count":237606,
			"type":"SCALAR"
		}
	],
	"bufferViews":[
		{
			"buffer":0,
			"byteLength":1837728,
			"byteOffset":0,
			"target":34962
		},
		{
			"buffer":0,
			"byteLength":1837728,
			"byteOffset":1837728,
			"target":34962
		},
		{
			"buffer":0,
			"byteLength":950424,
			"byteOffset":3675456,
			"target":34963
		}
	],
	"buffers":[
		{
			"byteLength":4625880,
			"uri":"scene.bin"
		}
	]
}
